#!OML:ASF E:\Steps\Project 1\Capture day 1\Session 2\Subject.ASF
:FULLY-SPECIFIED
:DEGREES
151
root 9.28323 16.3162 17.9175 -153.408 -2.59009 179.827
lowerback -30.3422 -1.24065 -6.21863
upperback -2.61155 -0.408541 -0.440078
thorax 12.9732 -0.895565 2.64501
lowerneck 5.15421 -5.96472 -2.9748
upperneck -14.3407 -7.86089 9.06349
head -4.63726 -4.54611 3.71622
rclavicle 1.32192e-014 3.4191e-014
rhumerus -33.4644 -21.3766 -80.0147
rradius 25.6083
rwrist 4.165
rhand -10.6466 -52.9325
rfingers 7.12502
rthumb 15.3609 -82.3419
lclavicle 1.32192e-014 3.4191e-014
lhumerus -26.3812 6.75104 82.7669
lradius 15.3129
lwrist -15.8222
lhand -21.8488 -13.9343
lfingers 7.12502
lthumb 4.55475 15.9967
rfemur -26.0113 9.1731 17.1693
rtibia 9.16394
rfoot -18.2852 -4.96612
rtoes -32.1864
lfemur -24.7019 -8.76699 -18.1003
ltibia 7.83278
lfoot -8.31675 4.79411
ltoes -42.1206
152
root 9.28409 16.3165 17.9172 -153.386 -2.58704 179.818
lowerback -30.3675 -1.23468 -6.22824
upperback -2.58707 -0.390483 -0.445613
thorax 13.0106 -0.887851 2.65094
lowerneck 5.11782 -5.96661 -3.01929
upperneck -14.2336 -7.86528 9.03813
head -4.59723 -4.53863 3.70975
rclavicle 1.11816e-014 -8.74653e-015
rhumerus -33.3926 -21.3221 -80.0601
rradius 25.6094
rwrist 4.08581
rhand -10.5848 -52.8538
rfingers 7.12502
rthumb 15.4204 -82.2586
lclavicle 1.11816e-014 -8.74653e-015
lhumerus -26.2625 6.79818 82.7847
lradius 15.2439
lwrist -15.9827
lhand -21.9948 -13.9889
lfingers 7.12502
lthumb 4.41375 15.9451
rfemur -26.0313 9.16195 17.1696
rtibia 9.16189
rfoot -18.2165 -4.97185
rtoes -32.136
lfemur -24.7272 -8.73435 -18.1039
ltibia 7.85793
lfoot -8.32661 4.79579
ltoes -42.1058
153
root 9.28438 16.3181 17.9146 -153.459 -2.59434 179.856
lowerback -30.3301 -1.22696 -6.19539
upperback -2.55133 -0.38463 -0.436856
thorax 13.0355 -0.881156 2.64626
lowerneck 5.17818 -5.93664 -3.08358
upperneck -14.0873 -7.8198 9.0374
head -4.56277 -4.50518 3.71457
rclavicle 3.47873e-015 7.95139e-015
rhumerus -33.4134 -21.2774 -80.095
rradius 25.695
rwrist 4.00952
rhand -10.6058 -52.8206
rfingers 7.12502
rthumb 15.4002 -82.227
lclavicle 3.47873e-015 7.95139e-015
lhumerus -26.2431 6.66301 82.8654
lradius 15.3043
lwrist -15.9236
lhand -22.0804 -13.8382
lfingers 7.12502
lthumb 4.33111 16.0975
rfemur -25.933 9.19449 17.2252
rtibia 9.13751
rfoot -18.1326 -5.06828
rtoes -32.604
lfemur -24.6299 -8.90777 -18.0124
ltibia 7.84639
lfoot -8.34333 5.0668
ltoes -42.3956
154
root 9.28603 16.3182 17.9134 -153.424 -2.62052 179.913
lowerback -30.3671 -1.21845 -6.15727
upperback -2.57309 -0.392177 -0.416503
thorax 13.0281 -0.88434 2.64394
lowerneck 5.24584 -5.91155 -3.12503
upperneck -13.9731 -7.78206 9.02141
head -4.54061 -4.47721 3.713
rclavicle -2.33572e-015 -2.46493e-014
rhumerus -33.5013 -21.2453 -80.0896
rradius 25.7904
rwrist 3.95083
rhand -10.6065 -52.7287
rfingers 7.12502
rthumb 15.3996 -82.1351
lclavicle -2.33572e-015 -2.46493e-014
lhumerus -26.2506 6.50108 82.9344
lradius 15.3285
lwrist -15.8196
lhand -21.9345 -13.6371
lfingers 7.12502
lthumb 4.47205 16.2957
rfemur -25.9649 9.22377 17.3061
rtibia 9.13521
rfoot -18.1797 -5.08103
rtoes -32.3943
lfemur -24.6607 -8.93866 -17.911
ltibia 7.82353
lfoot -8.29943 5.03299
ltoes -41.9728
155
root 9.28707 16.3176 17.9128 -153.38 -2.6206 179.928
lowerback -30.4047 -1.21264 -6.16064
upperback -2.59553 -0.389093 -0.403428
thorax 13.0185 -0.88504 2.6601
lowerneck 5.2722 -5.92674 -3.17502
upperneck -13.8898 -7.80255 9.0119
head -4.51659 -4.47953 3.71647
rclavicle 1.49585e-014 -2.0276e-014
rhumerus -33.5335 -21.2756 -80.045
rradius 25.7974
rwrist 3.99568
rhand -10.5383 -52.4948
rfingers 7.12502
rthumb 15.4652 -81.8962
lclavicle 1.49585e-014 -2.0276e-014
lhumerus -26.2053 6.55469 82.9453
lradius 15.255
lwrist -15.9077
lhand -21.8565 -13.6386
lfingers 7.12502
lthumb 4.54731 16.2926
rfemur -25.9993 9.21093 17.3281
rtibia 9.10741
rfoot -18.2552 -4.96484
rtoes -31.9163
lfemur -24.7072 -8.85303 -17.8996
ltibia 7.80405
lfoot -8.27883 4.87286
ltoes -41.3665
156
root 9.28724 16.3176 17.9129 -153.362 -2.60605 179.913
lowerback -30.3912 -1.22602 -6.1983
upperback -2.61604 -0.400964 -0.388876
thorax 12.9898 -0.892901 2.69151
lowerneck 5.26142 -5.93421 -3.19915
upperneck -13.8175 -7.8147 8.98067
head -4.49229 -4.47841 3.70784
rclavicle 1.59028e-015 5.96354e-015
rhumerus -33.5009 -21.247 -80.0495
rradius 25.7579
rwrist 3.89258
rhand -10.6686 -52.6496
rfingers 7.12502
rthumb 15.3397 -82.0607
lclavicle 1.59028e-015 5.96354e-015
lhumerus -26.2069 6.65146 82.9517
lradius 15.2569
lwrist -15.9885
lhand -21.8532 -13.7122
lfingers 7.12502
lthumb 4.55048 16.219
rfemur -26.013 9.15191 17.3153
rtibia 9.08486
rfoot -18.211 -4.86291
rtoes -31.8082
lfemur -24.7623 -8.90031 -17.9053
ltibia 7.87617
lfoot -8.32522 5.0165
ltoes -41.578
157
root 9.28674 16.3185 17.9115 -153.395 -2.63611 179.886
lowerback -30.3267 -1.26028 -6.2331
upperback -2.62396 -0.439492 -0.371507
thorax 12.9559 -0.91069 2.71534
lowerneck 5.26629 -5.9355 -3.19918
upperneck -13.809 -7.82062 8.9248
head -4.4927 -4.47658 3.69081
rclavicle -2.93207e-015 5.00937e-014
rhumerus -33.4922 -21.1472 -80.0829
rradius 25.7767
rwrist 3.71709
rhand -10.8641 -52.8584
rfingers 7.12502
rthumb 15.1514 -82.2837
lclavicle -2.93207e-015 5.00937e-014
lhumerus -26.2699 6.53646 83.0054
lradius 15.3607
lwrist -15.842
lhand -21.962 -13.7964
lfingers 7.12502
lthumb 4.44551 16.1369
rfemur -25.9585 9.10275 17.3057
rtibia 9.07793
rfoot -18.2171 -4.86473
rtoes -31.6133
lfemur -24.7493 -8.97243 -17.9317
ltibia 7.94201
lfoot -8.36143 5.14562
ltoes -42.2484
